<?xml version="1.0" standalone="no"?>
<!DOCTYPE svg PUBLIC "-//W3C//DTD SVG 20010904//EN"
 "http://www.w3.org/TR/2001/REC-SVG-20010904/DTD/svg10.dtd">
<svg version="1.0" xmlns="http://www.w3.org/2000/svg"
 width="2248.000000pt" height="1880.000000pt" viewBox="0 0 2248.000000 1880.000000"
 preserveAspectRatio="xMidYMid meet">

<g transform="translate(0.000000,1880.000000) scale(0.100000,-0.100000)"
fill="#000000" stroke="none">
<path d="M0 9400 l0 -9400 11240 0 11240 0 0 9400 0 9400 -11240 0 -11240 0 0
-9400z m14188 6061 c45 -18 96 -97 254 -386 70 -129 157 -286 251 -453 49 -86
98 -174 109 -196 26 -52 194 -352 264 -473 30 -50 54 -96 54 -102 0 -6 5 -11
10 -11 6 0 10 -4 10 -9 0 -5 30 -63 66 -128 37 -65 78 -140 93 -168 15 -27 69
-126 121 -220 93 -166 95 -170 95 -235 -1 -172 -127 -425 -275 -554 -113 -99
-236 -153 -411 -182 -168 -27 -336 12 -487 114 -28 19 -55 32 -58 29 -7 -7
-10 -645 -6 -1349 l2 -387 299 -3 c286 -3 301 -4 328 -24 15 -12 36 -36 47
-53 40 -70 184 -513 237 -733 53 -219 63 -313 63 -558 0 -195 -4 -256 -22
-356 -38 -214 -129 -537 -233 -826 -48 -134 -63 -164 -92 -180 -17 -9 -213
-13 -840 -16 -450 -2 -846 -1 -881 3 l-63 6 -52 90 c-28 50 -51 92 -51 95 0 2
-15 43 -34 92 -19 48 -44 115 -56 150 l-23 62 -1197 0 -1198 0 -48 -43 c-152
-136 -387 -277 -559 -337 -229 -80 -398 -111 -610 -112 -218 0 -341 18 -533
81 -245 81 -337 128 -540 277 -156 114 -289 260 -425 467 -48 73 -137 252
-137 276 0 5 -10 31 -21 58 -45 102 -96 363 -105 543 -12 218 67 583 166 766
11 21 20 44 20 51 0 18 58 121 99 178 20 28 49 70 63 95 44 76 289 306 413
389 120 79 340 190 426 215 l54 16 0 530 c0 292 -1 530 -3 530 -2 0 -42 -20
-90 -44 -132 -67 -157 -76 -266 -87 -207 -23 -331 1 -481 95 -27 17 -63 38
-80 46 -44 22 -150 131 -195 201 -48 74 -76 147 -101 259 -10 47 -24 104 -30
126 -12 41 -12 42 61 175 40 74 81 145 91 159 10 14 45 77 77 140 32 63 82
152 110 197 28 46 70 120 93 165 22 46 68 129 100 185 32 56 81 141 107 190
27 48 73 131 104 183 30 52 75 133 99 180 51 96 195 357 244 440 18 30 47 82
65 115 44 80 107 186 122 206 8 9 30 28 51 42 l37 25 2632 -2 c2113 -2 2639
-5 2666 -15z m-2158 -9718 c135 -48 221 -165 220 -301 -1 -68 -16 -115 -56
-168 -62 -82 -102 -108 -197 -124 -116 -21 -242 20 -329 106 -68 66 -83 104
-82 199 0 68 4 88 28 135 74 143 255 209 416 153z m-6007 -73 c146 -14 299
-54 416 -107 188 -86 374 -299 446 -510 64 -190 80 -287 80 -493 -1 -190 -11
-272 -55 -437 -41 -150 -154 -338 -267 -444 -86 -81 -263 -168 -433 -212 -192
-51 -340 -56 -552 -22 -79 13 -284 82 -361 121 -79 41 -257 183 -257 206 0 5
-14 30 -31 55 -51 74 -148 276 -155 324 -3 24 -15 76 -25 114 -45 171 -48 367
-8 540 36 155 50 197 110 319 58 117 104 185 162 238 16 15 54 50 84 78 30 28
65 57 77 64 163 99 229 123 421 156 117 21 212 23 348 10z m3160 -67 c4 -2 7
-152 7 -332 l0 -329 -22 -6 c-30 -8 -486 -8 -515 0 -22 6 -23 11 -25 138 l-3
131 -209 -3 c-115 -1 -211 -4 -213 -6 -7 -7 -14 -447 -8 -476 l7 -30 272 0
c198 0 275 -3 284 -12 8 -8 12 -67 12 -198 0 -131 -4 -190 -12 -198 -9 -9 -86
-12 -285 -12 l-273 0 -2 -97 c-2 -128 1 -266 7 -271 2 -2 55 -4 117 -3 62 0
129 -3 148 -7 l35 -8 -3 -189 c-2 -105 -6 -197 -8 -207 -5 -18 -4 -18 -735
-23 l-387 -3 -12 27 c-15 33 -14 365 1 394 10 17 18 19 70 14 111 -10 100 -89
97 657 l-3 651 -77 0 c-42 0 -80 4 -85 8 -4 5 -10 86 -13 180 -5 165 -1 199
25 220 10 8 1794 -2 1808 -10z m7143 -8 c7 -9 10 -137 10 -392 l-1 -377 -40
-6 c-22 -3 -123 -6 -225 -5 l-185 0 -3 191 c-2 172 -4 192 -20 196 -9 2 -64 1
-121 -2 l-105 -5 0 -650 -1 -650 111 -1 c62 -1 118 -4 126 -7 12 -4 15 -38 13
-200 -1 -107 -5 -199 -9 -205 -4 -7 -174 -10 -569 -9 l-562 2 0 205 0 205 121
3 121 3 2 654 2 655 -120 0 -121 0 -1 -112 c-2 -140 -7 -249 -14 -265 -5 -16
-440 -19 -450 -4 -3 6 -6 184 -6 397 -1 314 2 388 13 395 7 5 465 6 1018 3
832 -5 1007 -8 1016 -19z m-6003 -510 c266 -46 457 -173 548 -363 41 -87 49
-139 49 -321 0 -86 3 -240 7 -343 l6 -187 72 6 c106 9 105 10 105 -201 0 -122
-4 -177 -13 -189 -11 -16 -41 -18 -322 -18 -346 0 -320 -6 -352 74 -22 54 -48
65 -82 35 -137 -126 -285 -178 -449 -158 -122 15 -263 74 -377 157 -49 37
-122 161 -141 241 -22 92 -18 206 11 285 31 90 79 170 134 224 50 49 214 134
304 157 74 19 193 22 282 6 77 -14 99 -23 132 -53 68 -62 80 79 12 149 -40 41
-64 50 -166 63 -148 19 -240 0 -411 -82 -70 -34 -106 -41 -119 -25 -5 7 -29
67 -53 133 -23 66 -51 137 -62 158 -11 22 -17 45 -14 52 9 25 233 127 363 165
35 10 68 22 75 26 38 24 342 30 461 9z m7227 -21 c115 -32 198 -68 276 -122
81 -55 169 -148 193 -203 36 -80 51 -216 51 -454 0 -121 3 -264 7 -319 l6 -99
68 6 c104 9 102 14 100 -199 -1 -103 -6 -183 -12 -189 -6 -6 -130 -11 -312
-13 -343 -4 -331 -7 -359 78 -17 52 -37 60 -76 30 -70 -54 -202 -132 -244
-145 -92 -27 -175 -28 -283 -5 -55 12 -118 31 -140 42 -110 56 -241 174 -270
246 -8 18 -22 72 -31 119 -37 201 11 360 151 491 127 120 247 165 445 166 130
1 195 -14 270 -64 l45 -30 3 48 c1 27 -5 68 -15 96 -14 38 -27 53 -63 74 -40
23 -58 27 -167 30 -117 4 -257 -15 -288 -38 -5 -4 -22 -10 -37 -14 -16 -3 -28
-11 -28 -16 0 -6 -6 -10 -13 -10 -7 0 -32 -11 -57 -24 -58 -31 -63 -25 -125
139 -14 39 -35 89 -46 113 -25 55 -24 74 4 99 37 35 217 119 323 152 140 44
197 51 374 46 127 -4 172 -9 250 -31z m-3631 12 c16 -19 13 -510 -3 -531 -6
-8 -29 -15 -51 -16 -179 -7 -290 -61 -337 -166 -27 -60 -39 -178 -36 -338 l3
-140 75 0 75 0 0 -199 0 -200 -29 -7 c-15 -4 -208 -9 -429 -10 -378 -2 -401
-1 -414 17 -18 25 -19 362 0 387 8 12 31 17 77 19 36 2 64 6 63 11 -2 4 -3
162 -3 352 l0 345 -60 0 c-54 0 -60 2 -64 23 -9 42 -15 363 -7 375 6 9 76 12
301 10 l293 -3 18 -51 c19 -57 46 -104 60 -104 5 0 13 10 18 23 5 13 30 43 55
67 25 24 48 51 51 60 6 20 31 32 110 55 115 32 217 41 234 21z m-1709 -88 c1
-13 0 -265 0 -560 l-1 -538 53 -1 c58 -1 87 -5 95 -13 11 -11 9 -386 -1 -395
-6 -5 -201 -12 -433 -16 -418 -7 -421 -7 -432 13 -15 29 -15 388 0 398 7 4 37
10 68 13 l56 6 3 358 2 357 -55 -6 c-86 -10 -85 -13 -85 206 0 102 3 190 7
193 3 4 168 7 365 7 l358 0 0 -22z m-2087 -475 c-7 -2 -21 -2 -30 0 -10 3 -4
5 12 5 17 0 24 -2 18 -5z m1377 -1063 c0 -5 -4 -10 -10 -10 -5 0 -10 5 -10 10
0 6 5 10 10 10 6 0 10 -4 10 -10z"/>
<path d="M8966 15180 c-34 -51 -110 -187 -179 -319 -33 -64 -71 -133 -84 -154
-32 -52 -50 -83 -117 -211 -32 -61 -75 -137 -96 -170 -20 -34 -61 -106 -90
-161 -29 -55 -72 -131 -95 -170 -23 -38 -62 -108 -87 -155 -62 -118 -104 -193
-154 -275 -23 -38 -69 -124 -102 -190 l-61 -120 62 -2 c205 -8 7187 -7 7187 1
0 5 -38 77 -84 160 -46 83 -101 183 -121 221 -20 39 -67 122 -104 185 -78 133
-218 385 -286 515 -26 50 -69 126 -95 170 -52 89 -84 146 -155 280 -27 50 -55
101 -64 114 -9 13 -50 89 -91 170 l-75 146 -2543 0 -2543 0 -23 -35z"/>
<path d="M7816 12973 c-14 -15 89 -182 147 -236 41 -39 167 -108 222 -121 17
-5 76 -8 132 -7 92 0 109 4 175 33 160 70 278 195 278 294 0 42 -37 45 -507
43 -243 0 -444 -3 -447 -6z"/>
<path d="M14455 12973 c-135 -3 -149 -6 -162 -36 -9 -19 -7 -33 7 -64 21 -48
37 -68 113 -145 65 -65 118 -93 221 -115 172 -36 341 14 467 140 74 74 150
204 127 218 -11 7 -471 8 -773 2z"/>
<path d="M9969 12965 c-3 -2 -192 -5 -421 -5 l-416 -1 -5 -27 c-6 -32 37 -103
109 -179 34 -37 77 -66 142 -99 l94 -46 111 0 c96 0 123 4 187 28 41 14 86 34
100 42 23 15 88 78 118 116 13 16 92 152 92 159 0 1 -10 3 -22 4 -13 1 -37 4
-54 8 -17 3 -33 3 -35 0z"/>
<path d="M13819 12965 c-3 -2 -193 -5 -422 -5 l-417 -1 0 -23 c0 -13 9 -35 20
-49 11 -14 20 -29 20 -35 0 -5 36 -47 79 -94 62 -66 93 -91 142 -113 114 -51
300 -54 406 -5 103 46 120 57 166 105 40 41 137 196 137 219 0 7 -124 9 -131
1z"/>
<path d="M10403 12945 c-8 -23 53 -117 127 -195 51 -54 82 -77 145 -107 79
-37 82 -38 200 -38 112 0 125 2 192 31 130 57 208 130 283 266 l31 58 -486 0
c-422 0 -487 -2 -492 -15z"/>
<path d="M11693 12946 c-9 -11 0 -30 43 -92 77 -111 126 -157 210 -200 135
-69 324 -69 462 -2 80 39 185 157 248 279 l14 29 -482 -1 c-389 0 -485 -3
-495 -13z"/>
<path d="M12771 12623 c-57 -83 -224 -193 -382 -250 -68 -25 -86 -27 -229 -27
-148 -1 -158 0 -225 28 -92 38 -165 79 -245 138 -69 52 -82 64 -129 116 -16
17 -34 32 -40 32 -6 0 -24 -19 -41 -41 -56 -78 -250 -205 -380 -249 -91 -31
-289 -39 -380 -16 -81 21 -209 84 -327 161 -71 46 -97 70 -114 103 -12 23 -25
42 -29 42 -12 0 -63 -43 -90 -75 -64 -76 -166 -143 -309 -203 -99 -40 -319
-54 -426 -26 -82 21 -215 85 -302 145 -39 27 -74 49 -77 49 -3 0 -6 -240 -6
-533 l0 -532 192 4 c114 2 229 -2 283 -9 188 -25 375 -82 557 -170 l125 -60
1906 0 1907 0 0 656 0 655 -32 -22 c-18 -13 -38 -28 -44 -34 -30 -29 -158 -97
-224 -120 -235 -81 -437 -62 -641 61 -87 53 -206 156 -228 198 -8 14 -20 26
-26 26 -7 0 -26 -21 -44 -47z"/>
<path d="M9010 11210 c-212 -40 -443 -143 -620 -276 -134 -102 -332 -318 -308
-338 1 -2 53 -32 113 -66 61 -35 133 -78 160 -95 28 -18 79 -47 115 -65 36
-18 90 -49 120 -70 30 -20 96 -58 145 -84 50 -27 114 -64 143 -84 l54 -35 21
25 c35 39 122 95 162 102 l37 7 -3 500 c-4 493 -4 499 -24 498 -11 -1 -63 -9
-115 -19z"/>
<path d="M9410 10735 l0 -495 78 -39 c44 -22 93 -52 111 -67 l32 -27 42 19
c23 10 72 37 109 59 37 22 120 72 185 111 65 39 154 90 198 114 44 24 123 69
175 100 52 32 110 65 128 74 l33 17 -23 32 c-44 65 -288 296 -349 332 -34 19
-68 42 -76 51 -23 23 -166 91 -269 129 -101 37 -241 71 -321 79 l-53 5 0 -494z"/>
<path d="M10520 10981 c0 -4 21 -25 46 -46 75 -63 226 -279 293 -420 151 -315
207 -738 142 -1075 -22 -115 -31 -148 -84 -290 -31 -84 -122 -281 -162 -350
-8 -13 -13 -26 -11 -27 7 -7 2086 -3 2087 4 1 17 -14 111 -27 173 -19 84 -40
369 -38 488 3 88 31 359 40 373 2 4 13 53 24 110 23 121 72 294 143 504 60
180 91 247 134 292 l33 33 429 0 430 0 3 114 3 115 -29 5 c-46 10 -3456 7
-3456 -3z"/>
<path d="M13284 10482 c-6 -4 -30 -52 -53 -107 -23 -55 -45 -106 -48 -112 -4
-10 163 -13 816 -13 675 0 821 2 821 13 0 8 -12 47 -26 88 -15 41 -30 87 -33
103 l-6 29 -730 3 c-402 2 -735 0 -741 -4z"/>
<path d="M10574 10346 c-11 -8 -41 -26 -65 -39 -24 -13 -78 -44 -119 -69 -137
-82 -273 -161 -435 -251 -88 -48 -166 -95 -174 -102 -13 -13 -13 -22 -2 -66 9
-34 11 -76 7 -128 -8 -86 -4 -94 53 -106 18 -4 50 -22 70 -39 20 -18 70 -51
111 -73 41 -21 120 -65 175 -97 191 -111 340 -199 377 -223 21 -12 42 -23 47
-23 23 0 71 131 111 308 11 45 22 87 25 92 3 6 6 97 6 202 0 206 -13 302 -65
473 -38 128 -52 155 -78 155 -13 0 -33 -6 -44 -14z"/>
<path d="M7940 10341 c-19 -5 -29 -22 -50 -81 -70 -200 -95 -371 -87 -594 5
-132 10 -168 42 -285 38 -141 68 -238 78 -247 7 -8 92 32 152 71 57 37 307
181 375 215 25 13 65 36 89 53 24 16 89 53 145 82 115 59 115 61 96 165 -11
59 -10 69 9 110 16 34 18 47 8 53 -6 4 -64 37 -127 72 -63 35 -133 76 -155 92
-22 15 -56 35 -75 43 -57 24 -183 97 -207 119 -12 12 -48 32 -80 46 -32 15
-78 39 -103 54 -54 34 -77 41 -110 32z"/>
<path d="M9195 9970 c-50 -24 -73 -44 -113 -99 -27 -38 -32 -53 -32 -103 0
-32 6 -74 14 -93 25 -58 76 -126 104 -136 15 -6 71 -11 126 -11 l98 0 40 39
c22 21 51 60 65 87 32 64 28 130 -13 212 -24 48 -39 65 -84 92 -65 39 -140 43
-205 12z"/>
<path d="M13105 9978 c-2 -7 -13 -62 -24 -123 -67 -353 -64 -653 11 -987 l21
-98 897 0 897 0 18 73 c10 39 20 83 22 97 1 14 12 63 23 110 26 113 36 340 21
499 -11 120 -63 387 -82 424 -9 16 -63 17 -905 17 -707 0 -895 -3 -899 -12z"/>
<path d="M8885 9366 c-22 -12 -80 -44 -130 -70 -49 -27 -135 -76 -190 -110
-55 -35 -120 -73 -145 -86 -43 -23 -119 -67 -277 -160 -40 -23 -73 -45 -73
-49 0 -10 128 -150 210 -229 193 -189 439 -313 737 -372 56 -11 109 -23 118
-26 13 -5 15 49 15 489 l0 495 -32 20 c-18 12 -61 35 -96 52 -34 17 -68 40
-75 50 -14 24 -13 24 -62 -4z"/>
<path d="M9586 9353 c-28 -20 -78 -49 -113 -65 l-63 -28 0 -500 c0 -303 4
-500 9 -500 5 0 22 5 38 11 15 5 61 17 102 24 182 35 414 133 576 243 54 36
134 106 201 174 156 159 185 198 150 198 -8 0 -53 24 -101 53 -109 66 -227
133 -286 162 -25 13 -59 35 -76 49 -17 14 -34 26 -38 26 -4 0 -63 33 -132 73
-125 73 -204 116 -213 116 -3 0 -27 -16 -54 -36z"/>
<path d="M13404 8490 l-201 -5 12 -45 c7 -25 20 -72 29 -105 21 -73 28 -81 51
-59 10 10 20 13 23 8 9 -12 29 -13 798 -19 l622 -5 15 32 c23 49 67 177 67
194 0 12 -84 14 -607 12 -335 -1 -699 -5 -809 -8z"/>
<path d="M5813 5182 c-39 -12 -112 -70 -136 -109 -24 -39 -76 -197 -95 -288
-30 -142 -21 -398 19 -545 25 -94 82 -203 134 -256 38 -40 43 -42 118 -49 96
-9 128 -3 173 32 46 37 79 94 99 173 9 36 23 85 32 110 21 65 44 273 38 355
-11 154 -18 194 -47 285 -17 52 -48 129 -68 170 l-38 75 -71 28 c-69 26 -114
32 -158 19z"/>
<path d="M10055 4116 c-16 -8 -43 -28 -59 -45 -24 -25 -30 -42 -34 -88 -3 -48
0 -64 20 -93 26 -39 49 -48 130 -49 72 -1 96 8 147 57 36 34 41 45 41 82 0 37
-5 47 -42 81 -42 38 -111 69 -152 69 -12 -1 -34 -7 -51 -14z"/>
<path d="M17203 4111 c-63 -28 -110 -106 -99 -163 11 -54 51 -92 100 -93 22
-1 52 -4 66 -8 37 -11 92 15 133 63 30 36 34 47 31 82 -5 51 -25 83 -66 104
-37 19 -134 28 -165 15z"/>
</g>
</svg>
